<?xml version="1.0" encoding="UTF-8"?>
<svg xmlns="http://www.w3.org/2000/svg" xmlns:xlink="http://www.w3.org/1999/xlink" width="170px" height="168px" viewBox="0 0 170 168" version="1.1">
<g id="surface1">
<path style=" stroke:none;fill-rule:nonzero;fill:rgb(0%,0%,0%);fill-opacity:1;" d="M 0.398438 0.398438 C 0.796875 0.511719 1.480469 0.511719 1.878906 0.398438 C 2.222656 0.226562 1.9375 0.113281 1.140625 0.113281 C 0.34375 0.113281 0.0585938 0.226562 0.398438 0.398438 Z M 0.398438 0.398438 "/>
<path style=" stroke:none;fill-rule:nonzero;fill:rgb(0%,0%,0%);fill-opacity:1;" d="M 76.226562 1.484375 C 54.179688 4.90625 35.320312 20.65625 28.03125 41.65625 C 25.523438 49.019531 24.78125 53.640625 24.78125 62.488281 C 24.839844 70.988281 25.464844 74.925781 27.746094 81.148438 L 29.167969 85.027344 L 43.753906 85.027344 L 41.875 80.289062 C 38.96875 73.15625 37.941406 67.164062 38.339844 59.632812 C 38.796875 51.988281 39.765625 48.050781 43.011719 41.257812 C 47.683594 31.558594 54.976562 24.253906 64.71875 19.34375 C 88.359375 7.53125 116.902344 17.347656 128.46875 41.257812 C 131.714844 48.050781 132.683594 51.988281 133.140625 59.632812 C 133.539062 67.164062 132.511719 73.15625 129.609375 80.289062 L 127.726562 85.027344 L 142.371094 85.027344 L 143.566406 81.773438 C 145.957031 75.324219 146.585938 71.332031 146.640625 62.773438 C 146.699219 53.585938 146.015625 49.132812 143.453125 41.65625 C 140.433594 32.984375 136.5 26.648438 129.609375 19.515625 C 115.707031 4.964844 96.109375 -1.65625 76.226562 1.484375 Z M 76.226562 1.484375 "/>
<path style=" stroke:none;fill-rule:nonzero;fill:rgb(0%,0%,0%);fill-opacity:1;" d="M 78.621094 58.207031 L 78.621094 71.332031 L 97.535156 71.332031 L 99.128906 69.621094 C 100.324219 68.308594 101.238281 67.90625 102.832031 67.90625 C 104.425781 67.90625 105.339844 68.308594 106.535156 69.621094 C 107.789062 70.988281 108.585938 71.332031 110.464844 71.332031 L 112.800781 71.332031 L 112.800781 45.082031 L 78.621094 45.082031 Z M 78.621094 58.207031 "/>
<path style=" stroke:none;fill-rule:nonzero;fill:rgb(0%,0%,0%);fill-opacity:1;" d="M 63.292969 54.097656 L 58.679688 59.234375 L 58.679688 71.332031 L 60.160156 71.332031 C 61.074219 71.332031 62.15625 70.703125 63.066406 69.621094 C 64.207031 68.25 64.945312 67.90625 66.769531 67.90625 C 68.59375 67.90625 69.390625 68.25 70.644531 69.621094 C 72.011719 71.101562 72.636719 71.332031 75.144531 71.332031 L 78.050781 71.332031 L 77.9375 60.316406 L 77.765625 49.363281 L 72.867188 49.191406 L 67.964844 49.019531 Z M 76.339844 54.496094 L 76.339844 58.777344 L 68.648438 58.777344 C 64.433594 58.777344 60.957031 58.605469 60.957031 58.433594 C 60.957031 58.261719 62.554688 56.324219 64.546875 54.15625 L 68.078125 50.21875 L 76.339844 50.21875 Z M 76.339844 54.496094 "/>
<path style=" stroke:none;fill-rule:nonzero;fill:rgb(0%,0%,0%);fill-opacity:1;" d="M 65.230469 69.734375 C 62.894531 71.046875 62.554688 73.5 64.375 75.324219 C 65.800781 76.753906 67.28125 76.753906 68.933594 75.441406 C 72.066406 72.871094 68.761719 67.738281 65.230469 69.734375 Z M 68.078125 72.757812 C 68.078125 73.5 67.625 73.957031 66.828125 74.070312 C 65.859375 74.242188 65.515625 73.957031 65.515625 73.15625 C 65.515625 72.585938 65.6875 71.902344 65.914062 71.675781 C 66.65625 70.933594 68.078125 71.617188 68.078125 72.757812 Z M 68.078125 72.757812 "/>
<path style=" stroke:none;fill-rule:nonzero;fill:rgb(0%,0%,0%);fill-opacity:1;" d="M 100.554688 70.476562 C 99.753906 71.21875 99.128906 72.246094 99.128906 72.757812 C 99.128906 73.273438 99.753906 74.300781 100.554688 75.039062 C 102.320312 76.808594 103.34375 76.808594 105.109375 75.039062 C 105.90625 74.300781 106.535156 73.273438 106.535156 72.757812 C 106.535156 72.246094 105.90625 71.21875 105.109375 70.476562 C 104.371094 69.675781 103.34375 69.050781 102.832031 69.050781 C 102.320312 69.050781 101.292969 69.675781 100.554688 70.476562 Z M 104.140625 72.644531 C 104.371094 73.785156 102.71875 74.585938 101.863281 73.726562 C 101.007812 72.871094 101.804688 71.21875 102.945312 71.445312 C 103.515625 71.558594 104.027344 72.074219 104.140625 72.644531 Z M 104.140625 72.644531 "/>
<path style=" stroke:none;fill-rule:nonzero;fill:rgb(0%,0%,0%);fill-opacity:1;" d="M 0.171875 83.886719 C 0.171875 85.941406 0.285156 86.738281 0.398438 85.710938 C 0.511719 84.742188 0.511719 83.03125 0.398438 82.003906 C 0.285156 81.03125 0.171875 81.832031 0.171875 83.886719 Z M 0.171875 83.886719 "/>
<path style=" stroke:none;fill-rule:nonzero;fill:rgb(0%,0%,0%);fill-opacity:1;" d="M 115.367188 96.667969 C 112.175781 98.039062 110.636719 101.804688 111.664062 105.628906 C 112.628906 109.164062 116.390625 110.933594 120.664062 109.792969 C 121.746094 109.449219 121.917969 109.050781 121.917969 106.371094 C 121.917969 104.03125 121.6875 103.289062 121.0625 103.289062 C 120.4375 103.289062 120.207031 103.972656 120.207031 105.855469 C 120.207031 108.425781 120.207031 108.425781 118.214844 108.425781 C 113.542969 108.425781 111.605469 102.71875 115.023438 99.238281 C 116.902344 97.410156 118.214844 97.183594 119.980469 98.4375 C 121.175781 99.238281 121.917969 99.066406 121.917969 98.039062 C 121.917969 97.523438 118.441406 95.871094 117.53125 95.871094 C 117.300781 95.925781 116.277344 96.269531 115.367188 96.667969 Z M 115.367188 96.667969 "/>
<path style=" stroke:none;fill-rule:nonzero;fill:rgb(0%,0%,0%);fill-opacity:1;" d="M 29.226562 103.117188 C 29.339844 108.59375 29.511719 109.851562 30.195312 109.851562 C 30.820312 109.851562 31.105469 109.050781 31.21875 106.882812 C 31.390625 104.03125 31.449219 103.914062 33.15625 103.746094 C 35.777344 103.515625 35.949219 102.148438 33.382812 102.148438 C 31.449219 102.148438 31.332031 102.03125 31.332031 100.148438 C 31.332031 98.210938 31.390625 98.152344 33.613281 98.152344 C 35.265625 98.152344 35.890625 97.925781 35.890625 97.296875 C 35.890625 96.613281 35.152344 96.441406 32.472656 96.441406 L 29.113281 96.441406 Z M 29.226562 103.117188 "/>
<path style=" stroke:none;fill-rule:nonzero;fill:rgb(0%,0%,0%);fill-opacity:1;" d="M 38.96875 97.351562 C 39.140625 97.867188 39.308594 100.949219 39.308594 104.199219 C 39.308594 109.109375 39.480469 110.136719 40.164062 110.136719 C 40.789062 110.136719 41.019531 109.449219 41.019531 107.566406 C 41.019531 104.199219 42.386719 104.144531 44.609375 107.339844 C 46.144531 109.566406 47.570312 110.59375 48.253906 109.964844 C 48.425781 109.792969 47.742188 108.59375 46.773438 107.398438 C 44.664062 104.714844 44.664062 104.714844 46.144531 102.886719 C 47.683594 100.949219 47.570312 99.523438 45.859375 97.867188 C 44.777344 96.726562 43.925781 96.441406 41.53125 96.441406 C 39.140625 96.441406 38.683594 96.613281 38.96875 97.351562 Z M 44.09375 98.496094 C 45.175781 98.894531 45.292969 101.632812 44.324219 102.601562 C 43.925781 103.003906 43.070312 103.289062 42.328125 103.289062 C 41.132812 103.289062 41.019531 103.003906 41.019531 100.71875 C 41.019531 98.039062 41.703125 97.582031 44.09375 98.496094 Z M 44.09375 98.496094 "/>
<path style=" stroke:none;fill-rule:nonzero;fill:rgb(0%,0%,0%);fill-opacity:1;" d="M 51.273438 103.289062 L 51.273438 110.191406 L 54.519531 110.023438 C 58.566406 109.792969 59.535156 108.425781 55.601562 108.425781 L 52.984375 108.425781 L 52.984375 106.140625 C 52.984375 103.914062 53.039062 103.859375 54.917969 103.859375 C 56.117188 103.859375 56.96875 103.515625 57.199219 103.003906 C 57.425781 102.316406 57.027344 102.148438 55.261719 102.148438 C 53.039062 102.148438 52.984375 102.089844 52.984375 100.148438 C 52.984375 98.152344 52.984375 98.152344 55.546875 98.152344 C 57.425781 98.152344 58.109375 97.925781 58.109375 97.296875 C 58.109375 96.613281 57.371094 96.441406 54.691406 96.441406 L 51.273438 96.441406 Z M 51.273438 103.289062 "/>
<path style=" stroke:none;fill-rule:nonzero;fill:rgb(0%,0%,0%);fill-opacity:1;" d="M 59.25 97.296875 C 59.25 97.925781 59.875 98.152344 61.527344 98.152344 L 63.808594 98.152344 L 63.808594 104.144531 C 63.808594 109.109375 63.976562 110.136719 64.660156 110.136719 C 65.34375 110.136719 65.515625 109.109375 65.515625 104.144531 L 65.515625 98.152344 L 67.792969 98.152344 C 69.445312 98.152344 70.074219 97.925781 70.074219 97.296875 C 70.074219 96.613281 69.105469 96.441406 64.660156 96.441406 C 60.21875 96.441406 59.25 96.613281 59.25 97.296875 Z M 59.25 97.296875 "/>
<path style=" stroke:none;fill-rule:nonzero;fill:rgb(0%,0%,0%);fill-opacity:1;" d="M 72.351562 103.289062 L 72.351562 110.191406 L 75.601562 110.023438 C 79.644531 109.792969 80.613281 108.425781 76.683594 108.425781 L 74.0625 108.425781 L 74.0625 106.140625 C 74.0625 103.914062 74.117188 103.859375 76 103.859375 C 77.195312 103.859375 78.050781 103.515625 78.277344 103.003906 C 78.503906 102.316406 78.105469 102.148438 76.339844 102.148438 C 74.117188 102.148438 74.0625 102.089844 74.0625 100.207031 C 74.0625 98.265625 74.117188 98.210938 76.453125 98.039062 C 77.765625 97.925781 78.902344 97.523438 79.074219 97.125 C 79.246094 96.613281 78.335938 96.441406 75.828125 96.441406 L 72.351562 96.441406 Z M 72.351562 103.289062 "/>
<path style=" stroke:none;fill-rule:nonzero;fill:rgb(0%,0%,0%);fill-opacity:1;" d="M 82.265625 97.351562 C 82.4375 97.867188 82.605469 100.949219 82.605469 104.257812 C 82.605469 108.765625 82.777344 110.191406 83.347656 110.023438 C 83.746094 109.851562 84.144531 108.195312 84.316406 105.570312 L 84.601562 101.347656 L 86.824219 104.601562 C 88.078125 106.371094 89.214844 107.851562 89.445312 107.851562 C 89.671875 107.851562 90.925781 106.253906 92.234375 104.257812 L 94.570312 100.71875 L 94.570312 105.398438 C 94.570312 109.222656 94.742188 110.136719 95.425781 110.136719 C 96.167969 110.136719 96.28125 108.996094 96.28125 103.289062 C 96.28125 99.292969 96.050781 96.441406 95.710938 96.441406 C 95.425781 96.441406 93.945312 98.378906 92.40625 100.777344 L 89.613281 105.113281 L 86.59375 100.777344 C 84.941406 98.378906 83.234375 96.441406 82.777344 96.441406 C 82.207031 96.441406 82.039062 96.78125 82.265625 97.351562 Z M 82.265625 97.351562 "/>
<path style=" stroke:none;fill-rule:nonzero;fill:rgb(0%,0%,0%);fill-opacity:1;" d="M 103.289062 97.410156 C 103.117188 97.980469 101.976562 100.890625 100.78125 103.859375 C 99.640625 106.824219 98.785156 109.449219 98.957031 109.679688 C 99.46875 110.648438 100.210938 110.023438 100.894531 108.136719 C 101.578125 106.253906 101.804688 106.140625 104.085938 106.140625 C 106.308594 106.140625 106.59375 106.3125 107.332031 108.136719 C 107.84375 109.28125 108.585938 110.136719 109.15625 110.136719 C 110.238281 110.136719 110.292969 110.421875 107.277344 102.316406 C 105.167969 96.667969 104.085938 95.300781 103.289062 97.410156 Z M 105.109375 101.917969 C 106.191406 104.601562 106.25 104.429688 104.199219 104.429688 C 102.832031 104.429688 102.488281 104.257812 102.773438 103.515625 C 102.945312 103.003906 103.289062 101.976562 103.457031 101.234375 C 103.914062 99.40625 104.085938 99.464844 105.109375 101.917969 Z M 105.109375 101.917969 "/>
<path style=" stroke:none;fill-rule:nonzero;fill:rgb(0%,0%,0%);fill-opacity:1;" d="M 125.90625 102.945312 C 125.90625 107.054688 126.132812 109.621094 126.53125 109.90625 C 127.671875 110.59375 127.898438 109.28125 127.726562 102.832031 C 127.558594 97.753906 127.386719 96.441406 126.703125 96.441406 C 126.074219 96.441406 125.90625 97.695312 125.90625 102.945312 Z M 125.90625 102.945312 "/>
<path style=" stroke:none;fill-rule:nonzero;fill:rgb(0%,0%,0%);fill-opacity:1;" d="M 132.855469 102.832031 C 131.542969 106.371094 130.460938 109.449219 130.460938 109.679688 C 130.460938 110.878906 131.773438 109.90625 132.511719 108.136719 C 133.253906 106.3125 133.480469 106.140625 135.816406 106.140625 C 138.210938 106.140625 138.382812 106.253906 139.007812 108.136719 C 139.351562 109.222656 140.035156 110.136719 140.488281 110.136719 C 141.515625 110.136719 141.515625 109.109375 140.488281 106.65625 C 140.089844 105.570312 139.007812 102.832031 138.210938 100.550781 C 137.355469 98.324219 136.332031 96.441406 135.929688 96.441406 C 135.589844 96.441406 134.164062 99.351562 132.855469 102.832031 Z M 137.300781 103.6875 C 137.300781 104.144531 136.617188 104.429688 135.589844 104.429688 L 133.878906 104.429688 L 134.734375 102.375 C 135.191406 101.234375 135.589844 100.148438 135.648438 99.921875 C 135.703125 99.351562 137.242188 102.945312 137.300781 103.6875 Z M 137.300781 103.6875 "/>
<path style=" stroke:none;fill-rule:nonzero;fill:rgb(0%,0%,0%);fill-opacity:1;" d="M 61.871094 123.945312 C 71.554688 134.503906 78.734375 147.226562 82.605469 160.925781 C 84.941406 169.027344 86.652344 169.253906 88.589844 161.78125 C 91.835938 148.996094 99.925781 134.445312 109.609375 123.945312 L 112.914062 120.40625 L 58.566406 120.40625 Z M 61.871094 123.945312 "/>
<path style=" stroke:none;fill-rule:nonzero;fill:rgb(0%,0%,0%);fill-opacity:1;" d="M 0.398438 167.601562 C 0.796875 167.714844 1.480469 167.714844 1.878906 167.601562 C 2.222656 167.429688 1.9375 167.316406 1.140625 167.316406 C 0.34375 167.316406 0.0585938 167.429688 0.398438 167.601562 Z M 0.398438 167.601562 "/>
</g>
</svg>
